<svg width="168" height="168" viewBox="0 0 168 168" fill="none" xmlns="http://www.w3.org/2000/svg">
<path d="M122.858 126.864C122.855 126.864 122.855 126.864 122.858 126.864C121.404 126.861 120.23 125.685 120.233 124.236L120.236 123.265C120.243 117.631 120.275 97.1617 120.233 92.5916C120.22 91.1426 121.383 89.9561 122.834 89.943C122.842 89.943 122.85 89.943 122.858 89.943C124.299 89.943 125.47 91.1006 125.483 92.5444C125.525 97.1197 125.493 117.631 125.486 123.27L125.483 124.239C125.48 125.69 124.304 126.864 122.858 126.864Z" fill="black" fill-opacity="0.7"/>
<path d="M120.207 127.024C114.573 127.024 107.993 125.128 103.806 119.7C101.96 117.314 101.118 113.775 100.905 112.749C100.146 109.108 100.241 103.165 101.711 99.519C102.393 97.8259 103.436 96.1747 104.903 94.4606C109.365 89.2474 116.127 89.2946 121.572 89.3209L122.882 89.3261C124.333 89.3261 125.507 90.4995 125.507 91.9511C125.507 93.4027 124.333 94.5761 122.882 94.5761L121.538 94.5709C116.755 94.5499 111.77 94.5131 108.893 97.8757C107.804 99.1462 107.048 100.327 106.583 101.482C105.549 104.044 105.47 108.911 106.047 111.678C106.444 113.592 107.216 115.526 107.964 116.492C111.573 121.167 118.052 122.186 122.54 121.637C123.95 121.432 125.289 122.48 125.465 123.921C125.643 125.359 124.622 126.669 123.181 126.845C122.233 126.961 121.238 127.024 120.207 127.024Z" fill="black" fill-opacity="0.7"/>
<path d="M124.737 120.963C123.656 120.963 122.64 120.288 122.262 119.209C121.779 117.842 122.498 116.343 123.866 115.862C125.212 115.387 126.499 114.902 127.415 114.169C129.329 112.636 129.733 110.221 129.733 108.462C129.733 102.75 126.869 101.501 124.375 101.052C122.95 100.792 122.002 99.4298 122.257 98.0018C122.517 96.5764 123.855 95.6288 125.307 95.8834C131.547 97.0095 134.983 101.477 134.983 108.462C134.983 112.573 133.46 116.059 130.693 118.269C129.134 119.514 127.328 120.207 125.609 120.813C125.32 120.915 125.026 120.963 124.737 120.963Z" fill="black" fill-opacity="0.7"/>
<path d="M45.1421 127.1C43.6931 127.1 42.5197 125.929 42.5171 124.478L42.5145 123.509C42.5066 117.87 42.4751 97.3586 42.5171 92.7833C42.5302 91.3395 43.7036 90.1819 45.1421 90.1819C45.15 90.1819 45.1578 90.1819 45.1657 90.1819C46.6173 90.195 47.7802 91.3815 47.7671 92.8305C47.7251 97.398 47.7566 117.87 47.7645 123.504L47.7671 124.475C47.7697 125.921 46.5963 127.097 45.1421 127.1Z" fill="black" fill-opacity="0.7"/>
<path d="M47.7933 127.257C46.7617 127.257 45.7668 127.197 44.8218 127.079C43.3807 126.903 42.3596 125.593 42.5381 124.155C42.714 122.716 44.0606 121.679 45.4623 121.871C49.9537 122.42 56.4322 121.406 60.0363 116.731C60.7871 115.76 61.5588 113.825 61.9578 111.912C62.5327 109.145 62.4513 104.278 61.4197 101.716C60.9551 100.561 60.1991 99.3799 59.1097 98.1094C56.2301 94.7468 51.2426 94.7809 46.4651 94.8045L45.1211 94.8098C43.6695 94.8098 42.4961 93.6364 42.4961 92.1848C42.4961 90.7331 43.6695 89.5598 45.1211 89.5598L46.431 89.5545C51.8752 89.5283 58.6346 89.481 63.0997 94.6943C64.5671 96.4058 65.6092 98.0595 66.2917 99.7526C67.7617 103.399 67.8562 109.342 67.1002 112.983C66.885 114.012 66.0423 117.548 64.1943 119.939C60.0075 125.365 53.4266 127.257 47.7933 127.257Z" fill="black" fill-opacity="0.7"/>
<path d="M43.2627 121.199C42.9739 121.199 42.6773 121.149 42.3911 121.049C40.6744 120.445 38.8658 119.75 37.3091 118.506C34.5398 116.293 33.0173 112.809 33.0173 108.699C33.0173 101.714 36.4534 97.2458 42.693 96.1196C44.142 95.8598 45.4834 96.8126 45.7433 98.238C46.0005 99.666 45.0503 101.028 43.6249 101.288C41.1311 101.737 38.2673 102.987 38.2673 108.699C38.2673 110.457 38.6689 112.872 40.5878 114.405C41.5013 115.135 42.7875 115.623 44.1341 116.099C45.5018 116.582 46.221 118.08 45.738 119.445C45.36 120.524 44.3468 121.199 43.2627 121.199Z" fill="black" fill-opacity="0.7"/>
<path d="M122.879 96.1984C122.868 96.1984 122.858 96.1984 122.845 96.1984C121.396 96.18 120.236 94.9909 120.254 93.5393C120.309 89.0243 120.152 84.1208 119.779 78.9626C118.716 64.323 110.883 53.823 97.1302 48.5966C84.2625 43.7089 68.6359 45.7958 59.1386 53.6681C56.8654 55.5529 53.823 58.5375 52.0931 61.2649C47.8328 67.9928 47.7881 84.5014 47.7724 91.5495L47.7671 92.8174C47.7593 94.2638 46.5859 95.4293 45.1421 95.4293C45.1369 95.4293 45.1343 95.4293 45.129 95.4293C43.6774 95.4214 42.5093 94.2401 42.5171 92.7911L42.5224 91.5338C42.5434 83.3963 42.588 66.4624 47.6595 58.4535C50.2451 54.3716 54.5344 50.6651 55.7865 49.6283C66.6698 40.6035 84.4384 38.157 98.9966 43.6905C114.797 49.6939 123.792 61.761 125.013 78.5846C125.396 83.8898 125.562 88.9429 125.504 93.6075C125.486 95.046 124.312 96.1984 122.879 96.1984Z" fill="black" fill-opacity="0.7"/>
</svg>
