<svg width="122" height="122" viewBox="0 0 122 122" fill="none" xmlns="http://www.w3.org/2000/svg">
<g clip-path="url(#clip0_13_1595)">
<path d="M36.6043 11.0029C23.455 11.0029 12.7573 21.7008 12.7573 34.8501C12.7573 47.9994 23.4552 58.6971 36.6043 58.6971C49.7537 58.6971 60.4516 47.9994 60.4516 34.8501C60.452 21.7008 49.7544 11.0029 36.6043 11.0029ZM36.6043 55.0566C25.4623 55.0566 16.3978 45.9919 16.3978 34.8501C16.3978 23.7081 25.4625 14.6433 36.6043 14.6433C47.7464 14.6433 56.8111 23.7081 56.8111 34.8501C56.8111 45.9919 47.7464 55.0566 36.6043 55.0566Z" fill="black" fill-opacity="0.7"/>
<path d="M36.6043 21.3937C29.1845 21.3937 23.1476 27.4305 23.1476 34.8504C23.1476 42.2703 29.1845 48.3069 36.6043 48.3069C44.0244 48.3069 50.061 42.2705 50.061 34.8504C50.061 27.4303 44.0244 21.3937 36.6043 21.3937ZM26.8922 36.2672C26.825 35.8045 26.7885 35.3313 26.7885 34.8502C26.7885 29.4376 31.1922 25.0341 36.6048 25.0341C37.0861 25.0341 37.5589 25.0706 38.0218 25.1378L26.8922 36.2672ZM28.2742 40.034L41.7881 26.5198C43.2791 27.4508 44.5019 28.7702 45.3166 30.3357L32.0901 43.5622C30.5248 42.7475 29.2052 41.5247 28.2742 40.034ZM36.6043 44.6662C36.4506 44.6662 36.2981 44.6616 36.1459 44.6545L46.4089 34.3915C46.416 34.5437 46.4206 34.6962 46.4206 34.8502C46.4208 40.2627 42.0171 44.6662 36.6043 44.6662Z" fill="black" fill-opacity="0.7"/>
<path d="M28.2061 95.3258C24.1837 95.3258 20.9114 98.5981 20.9114 102.621C20.9114 106.643 24.1837 109.915 28.2061 109.915C32.2281 109.915 35.5006 106.643 35.5006 102.621C35.5009 98.5981 32.2288 95.3258 28.2061 95.3258ZM28.2061 106.274C26.1912 106.274 24.5521 104.635 24.5521 102.62C24.5521 100.605 26.1912 98.9663 28.2061 98.9663C30.2208 98.9663 31.8599 100.605 31.8599 102.62C31.8599 104.635 30.221 106.274 28.2061 106.274Z" fill="black" fill-opacity="0.7"/>
<path d="M48.919 73.9581H24.3817C22.4683 73.9581 20.9116 75.5148 20.9116 77.4282V84.2216C20.9116 86.135 22.4683 87.6917 24.3817 87.6917H48.9185C50.8319 87.6917 52.3886 86.135 52.3886 84.2216V77.4282C52.3886 75.5148 50.8322 73.9581 48.919 73.9581ZM48.7484 84.0513H24.5523V77.5986H48.7484V84.0513Z" fill="black" fill-opacity="0.7"/>
<g filter="url(#filter0_d_13_1595)">
<path d="M114.462 6.81605H86.0538C85.0485 6.81605 84.2336 7.63073 84.2336 8.63628C84.2336 9.64183 85.0485 10.4565 86.0538 10.4565H114.462C115.644 10.4565 116.605 11.4182 116.605 12.5999V66.3998C116.605 67.5815 115.644 68.5432 114.462 68.5432H62.8288V58.8418C62.8288 58.5403 62.7542 58.2565 62.6245 58.0061C68.1136 51.8451 71.4545 43.7311 71.4545 34.8499C71.4545 25.361 67.6406 16.7472 61.4679 10.4563H72.341C73.3463 10.4563 74.1612 9.64159 74.1612 8.63604C74.1612 7.6305 73.3463 6.81581 72.341 6.81581H57.7536C57.6137 6.81581 57.4784 6.83297 57.3476 6.86299C51.5483 2.55343 44.3691 0 36.6044 0C17.3884 0 1.75452 15.6337 1.75452 34.8501C1.75452 43.7311 5.09546 51.8453 10.5845 58.0063C10.4547 58.2568 10.3803 58.5406 10.3803 58.842V113.352C10.3803 118.121 14.2598 122 19.0283 122H54.1805C58.9493 122 62.8285 118.121 62.8285 113.352V72.1839H114.462C117.651 72.1839 120.245 69.5895 120.245 66.4001V12.5999C120.246 9.41046 117.651 6.81605 114.462 6.81605ZM59.1888 113.352H59.1885C59.1885 116.113 56.942 118.36 54.181 118.36H19.0285C16.2675 118.36 14.021 116.113 14.021 113.352V61.3697C20.1079 66.5611 27.996 69.7003 36.6046 69.7003C45.2131 69.7003 53.1011 66.5611 59.1885 61.3697V113.352H59.1888ZM36.6044 66.0596C19.3952 66.0596 5.39499 52.0591 5.39499 34.8501C5.39499 17.6412 19.3959 3.64047 36.6044 3.64047C53.8129 3.64047 67.8138 17.6412 67.8138 34.8501C67.8138 52.0591 53.8138 66.0596 36.6044 66.0596Z" fill="black" fill-opacity="0.7"/>
</g>
<path d="M104.378 28.8461H83.8839C82.8786 28.8461 82.0637 29.6608 82.0637 30.6664C82.0637 31.6719 82.8786 32.4866 83.8839 32.4866H104.378C105.383 32.4866 106.198 31.6719 106.198 30.6664C106.198 29.6611 105.383 28.8461 104.378 28.8461Z" fill="black" fill-opacity="0.7"/>
<path d="M104.378 37.6797H83.8839C82.8786 37.6797 82.0637 38.4944 82.0637 39.5C82.0637 40.5055 82.8786 41.3202 83.8839 41.3202H104.378C105.383 41.3202 106.198 40.5055 106.198 39.5C106.198 38.4944 105.383 37.6797 104.378 37.6797Z" fill="black" fill-opacity="0.7"/>
</g>
<defs>
<filter id="filter0_d_13_1595" x="-2.24548" y="0" width="126.491" height="130" filterUnits="userSpaceOnUse" color-interpolation-filters="sRGB">
<feFlood flood-opacity="0" result="BackgroundImageFix"/>
<feColorMatrix in="SourceAlpha" type="matrix" values="0 0 0 0 0 0 0 0 0 0 0 0 0 0 0 0 0 0 127 0" result="hardAlpha"/>
<feOffset dy="4"/>
<feGaussianBlur stdDeviation="2"/>
<feComposite in2="hardAlpha" operator="out"/>
<feColorMatrix type="matrix" values="0 0 0 0 0 0 0 0 0 0 0 0 0 0 0 0 0 0 0.25 0"/>
<feBlend mode="normal" in2="BackgroundImageFix" result="effect1_dropShadow_13_1595"/>
<feBlend mode="normal" in="SourceGraphic" in2="effect1_dropShadow_13_1595" result="shape"/>
</filter>
<clipPath id="clip0_13_1595">
<rect width="122" height="122" fill="white"/>
</clipPath>
</defs>
</svg>
