<svg width="107" height="107" viewBox="0 0 107 107" fill="none" xmlns="http://www.w3.org/2000/svg">
<g clip-path="url(#clip0_8_256)">
<path d="M0.000488281 0V66.8408H3.34695V70.2328H6.6025V66.8408H100.398V70.2328H103.653V66.8408H107V0H0.000488281ZM103.745 63.5853H3.25604V61.821H103.745V63.5853H103.745ZM103.745 58.5652H3.25604V51.781H103.745V58.5652H103.745ZM103.745 48.5257H3.25604V3.25555H103.745V48.5257H103.745Z" fill="black" fill-opacity="0.7"/>
<path d="M48.4797 53.5455H45.1332V56.801H48.4797V53.5455Z" fill="black" fill-opacity="0.7"/>
<path d="M55.173 53.5455H51.8265V56.801H55.173V53.5455Z" fill="black" fill-opacity="0.7"/>
<path d="M61.8666 53.5455H58.5201V56.801H61.8666V53.5455Z" fill="black" fill-opacity="0.7"/>
<path d="M26.2076 16.1638L23.9056 13.8618L15.5385 22.2288L17.8406 24.5308L26.2076 16.1638Z" fill="black" fill-opacity="0.7"/>
<path d="M39.5918 14.4917L37.2898 12.1897L15.5376 33.942L17.8396 36.244L39.5918 14.4917Z" fill="black" fill-opacity="0.7"/>
<path d="M37.0847 27.0409L34.7827 24.7389L28.9265 30.5951L31.2285 32.8971L37.0847 27.0409Z" fill="black" fill-opacity="0.7"/>
<path d="M32.8983 42.9355L66.3632 9.47058L64.0612 7.16858L30.5963 40.6334L32.8983 42.9355Z" fill="black" fill-opacity="0.7"/>
<path d="M59.6719 29.5526L69.7117 19.5128L67.4097 17.2108L57.3699 27.2506L59.6719 29.5526Z" fill="black" fill-opacity="0.7"/>
<path d="M59.0388 40.6373L61.3408 42.9393L67.197 37.0831L64.895 34.7811L59.0388 40.6373Z" fill="black" fill-opacity="0.7"/>
<path d="M98.9957 16.9979L96.6937 14.6959L70.758 40.6316L73.06 42.9336L98.9957 16.9979Z" fill="black" fill-opacity="0.7"/>
<path d="M0.000213623 107H73.5341V73.6251H0.000213623V107ZM3.25577 76.8806H70.2786V103.744H3.25577V76.8806Z" fill="black" fill-opacity="0.7"/>
<path d="M11.6678 81.9905H8.32132V85.246H11.6678V81.9905Z" fill="black" fill-opacity="0.7"/>
<path d="M18.3613 81.9905H15.0149V85.246H18.3613V81.9905Z" fill="black" fill-opacity="0.7"/>
<path d="M25.0547 81.9905H21.7082V85.246H25.0547V81.9905Z" fill="black" fill-opacity="0.7"/>
<path d="M31.7459 81.9905H28.3994V85.246H31.7459V81.9905Z" fill="black" fill-opacity="0.7"/>
<path d="M38.4394 81.9905H35.093V85.246H38.4394V81.9905Z" fill="black" fill-opacity="0.7"/>
<path d="M45.133 81.9905H41.7866V85.246H45.133V81.9905Z" fill="black" fill-opacity="0.7"/>
<path d="M51.8263 81.9905H48.4799V85.246H51.8263V81.9905Z" fill="black" fill-opacity="0.7"/>
<path d="M58.5199 81.9905H55.1734V85.246H58.5199V81.9905Z" fill="black" fill-opacity="0.7"/>
<path d="M65.2133 81.9905H61.8668V85.246H65.2133V81.9905Z" fill="black" fill-opacity="0.7"/>
<path d="M11.6678 88.684H8.32132V91.9396H11.6678V88.684Z" fill="black" fill-opacity="0.7"/>
<path d="M18.3613 88.684H15.0149V91.9396H18.3613V88.684Z" fill="black" fill-opacity="0.7"/>
<path d="M25.0547 88.684H21.7082V91.9396H25.0547V88.684Z" fill="black" fill-opacity="0.7"/>
<path d="M31.7459 88.684H28.3994V91.9396H31.7459V88.684Z" fill="black" fill-opacity="0.7"/>
<path d="M38.4394 88.684H35.093V91.9396H38.4394V88.684Z" fill="black" fill-opacity="0.7"/>
<path d="M45.133 88.684H41.7866V91.9396H45.133V88.684Z" fill="black" fill-opacity="0.7"/>
<path d="M51.8263 88.684H48.4799V91.9396H51.8263V88.684Z" fill="black" fill-opacity="0.7"/>
<path d="M58.5199 88.684H55.1734V91.9396H58.5199V88.684Z" fill="black" fill-opacity="0.7"/>
<path d="M65.2133 88.684H61.8668V91.9396H65.2133V88.684Z" fill="black" fill-opacity="0.7"/>
<path d="M11.6678 95.3774H8.32132V98.6329H11.6678V95.3774Z" fill="black" fill-opacity="0.7"/>
<path d="M18.3613 95.3774H15.0149V98.6329H18.3613V95.3774Z" fill="black" fill-opacity="0.7"/>
<path d="M58.5199 95.3774H55.1734V98.6329H58.5199V95.3774Z" fill="black" fill-opacity="0.7"/>
<path d="M65.2133 95.3774H61.8668V98.6329H65.2133V95.3774Z" fill="black" fill-opacity="0.7"/>
<path d="M51.8265 95.3774H21.7082V98.6329H51.8265V95.3774Z" fill="black" fill-opacity="0.7"/>
<path d="M93.6591 80.3182C89.0709 80.3182 85.338 84.0511 85.338 88.6393V98.6791C85.338 103.267 89.0709 107 93.6591 107C98.2473 107 101.98 103.267 101.98 98.6791V88.6393C101.98 84.0511 98.2471 80.3182 93.6591 80.3182ZM98.7245 98.6787C98.7245 101.472 96.4522 103.744 93.6591 103.744C90.866 103.744 88.5937 101.472 88.5937 98.6787V88.6389C88.5937 85.8458 90.8662 83.5735 93.6591 83.5735C96.4522 83.5735 98.7245 85.8458 98.7245 88.6389V98.6787Z" fill="black" fill-opacity="0.7"/>
<path d="M95.2863 86.9649H92.0307V90.3116H95.2863V86.9649Z" fill="black" fill-opacity="0.7"/>
</g>
<defs>
<clipPath id="clip0_8_256">
<rect width="107" height="107" fill="white"/>
</clipPath>
</defs>
</svg>
