<svg width="141" height="141" viewBox="0 0 141 141" fill="none" xmlns="http://www.w3.org/2000/svg">
<g clip-path="url(#clip0_22_2796)">
<path d="M110.156 138.18H30.8437C29.9669 138.18 29.2574 137.471 29.2574 136.594V4.40626C29.2574 3.52941 29.9669 2.82001 30.8437 2.82001H110.156C111.033 2.82001 111.742 3.52941 111.742 4.40626V136.594C111.742 137.471 111.033 138.18 110.156 138.18ZM32.4299 135.008H108.57V107.336H32.4299V135.008ZM32.4299 104.164H108.57V5.99251H32.4299V104.164ZM74.9062 121.172C74.9062 118.74 72.9322 116.766 70.4999 116.766C68.0677 116.766 66.0937 118.74 66.0937 121.172C66.0937 123.604 68.0677 125.578 70.4999 125.578C72.9322 125.578 74.9062 123.604 74.9062 121.172Z" fill="black" fill-opacity="0.7"/>
</g>
<defs>
<clipPath id="clip0_22_2796">
<rect width="141" height="141" fill="white"/>
</clipPath>
</defs>
</svg>
