<svg width="119" height="119" viewBox="0 0 119 119" fill="none" xmlns="http://www.w3.org/2000/svg">
<path d="M101.539 0H17.4608C12.2114 0 7.94067 4.27068 7.94067 9.52009V109.48C7.94067 114.729 12.2114 119 17.4608 119H101.539C106.789 119 111.06 114.729 111.06 109.48V9.52009C111.059 4.27068 106.789 0 101.539 0ZM106.299 109.48C106.299 112.105 104.164 114.24 101.539 114.24H17.4608C14.8355 114.24 12.7008 112.105 12.7008 109.48V9.52009C12.7008 6.89478 14.8357 4.76016 17.4608 4.76016H101.539C104.165 4.76016 106.299 6.89502 106.299 9.52009V109.48H106.299Z" fill="black" fill-opacity="0.7"/>
<path d="M59.5 41.1096C41.5106 41.1096 26.875 55.7451 26.875 73.7358C26.875 91.7264 41.5106 106.362 59.5 106.362C77.4906 106.362 92.1262 91.7264 92.1262 73.7358C92.1262 55.7451 77.4906 41.1096 59.5 41.1096ZM59.5 101.602C44.1347 101.602 31.6349 89.1013 31.6349 73.7358C31.6349 58.3702 44.1347 45.8695 59.5 45.8695C74.8653 45.8695 87.3663 58.3702 87.3663 73.7358C87.3663 89.1013 74.8653 101.602 59.5 101.602Z" fill="black" fill-opacity="0.7"/>
<path d="M59.5012 64.3228C54.3101 64.3228 50.0858 68.5458 50.0858 73.7358C50.0858 78.9257 54.3101 83.1488 59.5012 83.1488C64.6912 83.1488 68.9142 78.9257 68.9142 73.7358C68.9142 68.5458 64.6912 64.3228 59.5012 64.3228ZM59.5012 78.3888C56.9342 78.3888 54.8457 76.3016 54.8457 73.7358C54.8457 71.1699 56.9339 69.0827 59.5012 69.0827C62.0671 69.0827 64.1543 71.1699 64.1543 73.7358C64.1543 76.3016 62.0671 78.3888 59.5012 78.3888Z" fill="black" fill-opacity="0.7"/>
<path d="M43.6336 11.8942V26.5704H75.3674V11.8942H43.6336ZM70.6075 21.8105H48.3938V16.6541H70.6075V21.8105Z" fill="black" fill-opacity="0.7"/>
</svg>
